<?xml version="1.0" standalone="no"?><svg xmlns="http://www.w3.org/2000/svg" viewBox="0 0 1440 320"><path fill="#4F46E5" fill-opacity="1" d="M0,64L21.8,85.3C43.6,107,87,149,131,149.3C174.5,149,218,107,262,112C305.5,117,349,171,393,165.3C436.4,160,480,96,524,64C567.3,32,611,32,655,69.3C698.2,107,742,181,785,202.7C829.1,224,873,192,916,170.7C960,149,1004,139,1047,117.3C1090.9,96,1135,64,1178,90.7C1221.8,117,1265,203,1309,208C1352.7,213,1396,139,1418,101.3L1440,64L1440,320L1418.2,320C1396.4,320,1353,320,1309,320C1265.5,320,1222,320,1178,320C1134.5,320,1091,320,1047,320C1003.6,320,960,320,916,320C872.7,320,829,320,785,320C741.8,320,698,320,655,320C610.9,320,567,320,524,320C480,320,436,320,393,320C349.1,320,305,320,262,320C218.2,320,175,320,131,320C87.3,320,44,320,22,320L0,320Z"></path></svg>